<svg width="256" height="256" version="1.1" xmlns="http://www.w3.org/2000/svg" desc="Created with imagetracer.js version 1.2.6" ><path fill="rgb(28,28,28)" stroke="rgb(28,28,28)" stroke-width="1" opacity="1" d="M 110.5 35 L 112.5 35 L 128.5 49 L 142.5 36 L 145.5 35 L 151 39 Q 149.9 41.7 152.5 41 L 166 53.5 L 167 55.5 L 167 86.5 L 174.5 95 L 177.5 97 L 179 100 L 184 103.5 L 185 105.5 L 185 139.5 L 175.5 150 L 166 158.5 L 166 191.5 L 159.5 198 L 156.5 200 L 145.5 210 L 132.5 198 L 126.5 195 L 109.5 210 L 90 191.5 L 90 159.5 L 81.5 151 L 72 142.5 L 71 140.5 L 71 104.5 L 89 87.5 L 89 55.5 L 93.5 50 L 110.5 35 Z M 111 43 L 111 67 L 113 68 L 126 56 Q 120 47 111 43 Z M 144 43 L 130 56 L 131 58 L 144 67 L 145 68 L 145 44 L 144 43 Z M 106 47 L 99 53 L 93 59 L 93 92 L 87 97 L 75 109 L 75 133 L 91 120 L 94 121 L 94 150 L 97 150 L 108 139 L 108 108 L 109 106 L 124 92 L 126 89 L 126 64 L 114 75 L 108 78 L 107 76 L 107 48 L 106 47 Z M 149 47 L 149 76 L 148 77 L 146 77 L 134 67 L 130 65 L 130 89 L 131 91 L 134 92 L 148 107 L 148 139 L 162 151 L 162 122 L 163 119 L 169 122 L 180 132 L 181 132 L 181 109 L 167 94 L 165 94 L 163 91 L 163 59 L 149 47 Z M 128 95 L 115 109 L 128 120 L 139 111 L 141 108 L 128 95 Z M 143 114 L 130 127 L 130 150 L 144 139 L 144 115 L 143 114 Z M 112 115 L 112 139 L 125 150 L 126 150 L 126 127 L 115 115 L 112 115 Z M 90 129 L 80 137 L 78 141 L 87 148 L 90 151 L 90 129 Z M 168 129 L 166 131 L 166 149 L 170 148 L 178 139 L 168 129 Z M 110 145 L 97 157 Q 96 160 99 159 L 112 173 L 112 176 L 101 186 L 97 191 L 110 202 L 113 201 L 128 187 L 138 195 L 146 203 L 152 197 L 155 195 L 159 190 L 156 187 L 144 176 L 144 172 L 159 158 L 153 150 Q 150 151 151 148 L 147 145 L 129 160 L 110 145 Z M 161 163 L 150 174 L 161 184 L 162 184 L 162 164 L 161 163 Z M 94 164 L 94 183 L 99 181 L 105 174 L 96 164 L 94 164 Z " /><path fill="rgb(208,208,208)" stroke="rgb(208,208,208)" stroke-width="1" opacity="1" d="M 110.5 34 L 112.5 34 L 128.5 48 L 143.5 34 L 145.5 34 L 167 53.5 L 166.5 55 L 162.5 50 L 151 41 Q 152.1 38.3 149.5 39 L 144.5 35 L 127.5 49 L 112.5 35 L 110.5 35 L 90 53.5 L 89.5 55 L 89 53.5 L 110.5 34 Z " /><path fill="rgb(208,208,208)" stroke="rgb(208,208,208)" stroke-width="1" opacity="1" d="M 111 43 Q 119.8 47.3 126 55.5 L 112.5 68 L 111 66.5 L 111 43 Z M 113 44 L 113 67 L 125 56 L 113 44 Z " /><path fill="rgb(208,208,208)" stroke="rgb(208,208,208)" stroke-width="1" opacity="1" d="M 143.5 43 L 145 43.5 L 145 67.5 L 143.5 67 L 131 58 L 130 55.5 L 143.5 43 Z M 144 44 L 131 56 L 143 65 L 144 66 L 144 44 Z " /><path fill="rgb(208,208,208)" stroke="rgb(208,208,208)" stroke-width="1" opacity="1" d="M 105.5 47 L 107 47.5 L 94 58 L 94 91.5 L 83.5 102 L 76 108.5 L 76.5 131 L 87 123 Q 85.9 120.3 88.5 121 L 92.5 118 L 93.5 120 L 90.5 120 L 75 133 L 75 108.5 L 86.5 97 L 93 91.5 L 93 58.5 L 98.5 53 L 105.5 47 Z " /><path fill="rgb(208,208,208)" stroke="rgb(208,208,208)" stroke-width="1" opacity="1" d="M 149 47 L 163 58.5 L 163 90.5 L 165 94 L 166.5 94 L 181 108.5 L 181 131.5 L 179.5 132 L 168.5 122 L 163 119 L 162.5 121 L 162 119.5 L 165.5 118 L 179.5 131 L 180 108 L 178.5 108 L 163 92.5 L 162 90.5 L 162 58 L 150 49 L 149.5 75 L 149 47 Z " /><path fill="rgb(208,208,208)" stroke="rgb(208,208,208)" stroke-width="1" opacity="1" d="M 167.5 56 L 168 86.5 L 186 105.5 L 186 136.5 L 185 136.5 L 185 105.5 L 180.5 100 Q 178.3 100.8 179 98.5 L 176 97 Q 177.1 94.3 174.5 95 L 167 86.5 L 167.5 56 Z " /><path fill="rgb(208,208,208)" stroke="rgb(208,208,208)" stroke-width="1" opacity="1" d="M 88.5 57 L 89 67.5 L 88 67.5 L 88.5 57 Z " /><path fill="rgb(208,208,208)" stroke="rgb(208,208,208)" stroke-width="1" opacity="1" d="M 125.5 64 L 126 88.5 L 123.5 92 L 109 105.5 L 108.5 107 L 108 105.5 L 125 88.5 L 125 66.5 L 119.5 71 L 108.5 79 L 107 76.5 L 108 76.5 Q 107.3 78.8 109.5 78 L 125.5 64 Z " /><path fill="rgb(208,208,208)" stroke="rgb(208,208,208)" stroke-width="1" opacity="1" d="M 130.5 64 L 145.5 77 L 147.5 77 L 149 76.5 L 145.5 78 L 131.5 66 L 131 88.5 L 143.5 101 L 145 101 Q 143.9 103.7 146.5 103 L 148 105.5 L 133.5 92 L 131 90.5 L 130 88.5 L 130.5 64 Z " /><path fill="rgb(208,208,208)" stroke="rgb(208,208,208)" stroke-width="1" opacity="1" d="M 88.5 86 L 89 87.5 L 71.5 104 L 72 102.5 L 72 101 L 74 101 Q 72.9 98.3 75.5 99 L 86.5 88 L 88 88 L 88.5 86 Z " /><path fill="rgb(208,208,208)" stroke="rgb(208,208,208)" stroke-width="1" opacity="1" d="M 127.5 95 L 141 107.5 L 138.5 111 L 127.5 120 L 115 108.5 L 127.5 95 Z M 128 97 L 116 108 L 128 118 L 131 117 L 140 108 L 135 102 Q 132 103 133 100 L 128 97 Z " /><path fill="rgb(208,208,208)" stroke="rgb(208,208,208)" stroke-width="1" opacity="1" d="M 70.5 105 L 71 138.5 L 70 138.5 L 70.5 105 Z " /><path fill="rgb(208,208,208)" stroke="rgb(208,208,208)" stroke-width="1" opacity="1" d="M 148.5 107 L 149 138.5 L 150.5 140 L 162 149 L 161.5 151 L 148 138.5 L 148.5 107 Z " /><path fill="rgb(208,208,208)" stroke="rgb(208,208,208)" stroke-width="1" opacity="1" d="M 142.5 114 L 144 114.5 L 144 138.5 L 130 150 L 130 126.5 L 142.5 114 Z M 143 116 L 139 119 L 131 127 L 131 148 L 143 139 L 143 116 Z " /><path fill="rgb(208,208,208)" stroke="rgb(208,208,208)" stroke-width="1" opacity="1" d="M 112 115 L 114.5 115 L 126 126.5 L 126 149.5 L 124.5 150 L 112 138.5 L 112 115 Z M 114 116 L 113 139 L 124 148 L 125 148 L 125 127 L 114 116 Z " /><path fill="rgb(208,208,208)" stroke="rgb(208,208,208)" stroke-width="1" opacity="1" d="M 107.5 118 L 108 138.5 L 96.5 150 L 94 150 L 94.5 121 L 95.5 149 L 107 138.5 L 107.5 118 Z " /><path fill="rgb(208,208,208)" stroke="rgb(208,208,208)" stroke-width="1" opacity="1" d="M 89.5 129 L 90 150.5 L 86.5 148 L 78 140.5 L 79.5 137 L 89.5 129 Z M 89 131 L 87 133 L 84 135 L 79 141 L 83 143 L 89 149 L 89 131 Z " /><path fill="rgb(208,208,208)" stroke="rgb(208,208,208)" stroke-width="1" opacity="1" d="M 167.5 129 L 178 138.5 L 169.5 148 L 166 149 L 166 130.5 L 167.5 129 Z M 168 130 L 168 148 L 174 143 L 177 138 L 168 130 Z " /><path fill="rgb(208,208,208)" stroke="rgb(208,208,208)" stroke-width="1" opacity="1" d="M 184.5 140 L 185 141.5 L 184 144 L 182 144 Q 183.1 146.7 180.5 146 L 171.5 155 L 170 155 Q 171.1 157.7 168.5 157 L 167 158.5 L 166.5 191 L 166 158.5 L 184 141.5 L 184.5 140 Z " /><path fill="rgb(208,208,208)" stroke="rgb(208,208,208)" stroke-width="1" opacity="1" d="M 71.5 141 L 80.5 151 L 90 159.5 L 89.5 190 L 89 159.5 L 86.5 157 L 83.5 155 L 74.5 146 L 73 146 L 71.5 141 Z " /><path fill="rgb(208,208,208)" stroke="rgb(208,208,208)" stroke-width="1" opacity="1" d="M 109.5 145 L 128.5 160 L 146.5 145 L 151 148 Q 149.9 150.7 152.5 150 L 159 157.5 L 144 171.5 L 144 175.5 L 155.5 187 L 159 189.5 L 154.5 195 L 151.5 197 L 145.5 203 L 137.5 195 L 127.5 187 L 112.5 201 L 109.5 202 L 97 190.5 L 100.5 186 L 112 175.5 L 112 172.5 L 98.5 159 Q 95.9 159.8 97 156.5 L 109.5 145 Z M 146 146 L 129 161 L 127 160 Q 124 161 125 158 L 112 147 Q 107 146 108 149 L 107 149 L 98 158 L 107 165 L 113 173 L 112 178 L 98 189 L 101 193 Q 103 192 102 195 L 110 201 L 114 198 Q 116 199 115 196 L 128 186 L 143 199 Q 145 198 144 201 L 147 201 L 157 190 L 147 180 L 143 176 L 144 170 L 158 157 L 146 146 Z " /><path fill="rgb(208,208,208)" stroke="rgb(208,208,208)" stroke-width="1" opacity="1" d="M 160.5 163 Q 163.1 162.3 162 165 L 158.5 166 L 151 173.5 L 162 182 Q 163.1 184.7 160.5 184 L 150 173.5 L 160.5 163 Z " /><path fill="rgb(208,208,208)" stroke="rgb(208,208,208)" stroke-width="1" opacity="1" d="M 94 164 L 95.5 164 L 105 173.5 L 98.5 181 L 94 183 L 94 164 Z M 96 166 L 96 182 L 102 177 L 104 174 L 96 166 Z " /><path fill="rgb(208,208,208)" stroke="rgb(208,208,208)" stroke-width="1" opacity="1" d="M 90.5 192 L 110.5 210 L 126.5 195 L 128.5 195 L 145.5 210 L 158 200 Q 156.9 197.3 159.5 198 L 166 192.5 L 153.5 205 L 146.5 211 L 144.5 211 L 127.5 196 L 113 208 Q 114.1 210.7 111.5 210 L 109.5 211 L 107 210 Q 108.1 207.3 105.5 208 L 93.5 196 L 92 196 L 90.5 192 Z " /><path fill="rgb(254,254,254)" stroke="rgb(254,254,254)" stroke-width="1" opacity="1" d="M 94.5 47 L 93.5 49 L 94.5 47 Z " /><path fill="rgb(254,254,254)" stroke="rgb(254,254,254)" stroke-width="1" opacity="1" d="M 143.5 47 L 144 55.5 L 143 55.5 L 143.5 47 Z " /><path fill="rgb(254,254,254)" stroke="rgb(254,254,254)" stroke-width="1" opacity="1" d="M 161.5 47 L 162.5 49 L 161.5 47 Z " /><path fill="rgb(254,254,254)" stroke="rgb(254,254,254)" stroke-width="1" opacity="1" d="M 95.5 58 L 95 59.5 L 94.5 81 L 94 59.5 L 95.5 58 Z " /><path fill="rgb(254,254,254)" stroke="rgb(254,254,254)" stroke-width="1" opacity="1" d="M 133.5 68 L 135.5 71 L 133.5 68 Z " /><path fill="rgb(254,254,254)" stroke="rgb(254,254,254)" stroke-width="1" opacity="1" d="M 71.5 101 L 70.5 103 L 71.5 101 Z " /><path fill="rgb(254,254,254)" stroke="rgb(254,254,254)" stroke-width="1" opacity="1" d="M 147.5 103 L 148.5 105 L 147.5 103 Z " /><path fill="rgb(254,254,254)" stroke="rgb(254,254,254)" stroke-width="1" opacity="1" d="M 186.5 106 L 187 114.5 L 186 114.5 L 186.5 106 Z " /><path fill="rgb(254,254,254)" stroke="rgb(254,254,254)" stroke-width="1" opacity="1" d="M 178.5 108 L 179.5 110 L 178.5 108 Z " /><path fill="rgb(254,254,254)" stroke="rgb(254,254,254)" stroke-width="1" opacity="1" d="M 113.5 117 L 114 132.5 L 113 132.5 L 113.5 117 Z " /><path fill="rgb(254,254,254)" stroke="rgb(254,254,254)" stroke-width="1" opacity="1" d="M 76.5 119 L 77 128.5 L 76 128.5 L 76.5 119 Z " /><path fill="rgb(254,254,254)" stroke="rgb(254,254,254)" stroke-width="1" opacity="1" d="M 86.5 121 L 85.5 123 L 86.5 121 Z " /><path fill="rgb(254,254,254)" stroke="rgb(254,254,254)" stroke-width="1" opacity="1" d="M 95.5 122 L 96 147.5 L 95 147.5 L 95.5 122 Z " /><path fill="rgb(254,254,254)" stroke="rgb(254,254,254)" stroke-width="1" opacity="1" d="M 179.5 126 L 180 128.5 L 179 128.5 L 179.5 126 Z " /><path fill="rgb(254,254,254)" stroke="rgb(254,254,254)" stroke-width="1" opacity="1" d="M 86.5 133 L 85.5 135 L 86.5 133 Z " /><path fill="rgb(254,254,254)" stroke="rgb(254,254,254)" stroke-width="1" opacity="1" d="M 109.5 147 L 111 147.5 L 108.5 149 L 109.5 147 Z " /><path fill="rgb(254,254,254)" stroke="rgb(254,254,254)" stroke-width="1" opacity="1" d="M 123.5 158 L 124.5 160 L 123.5 158 Z " /><path fill="rgb(254,254,254)" stroke="rgb(254,254,254)" stroke-width="1" opacity="1" d="M 132.5 158 L 131.5 160 L 132.5 158 Z " /><path fill="rgb(254,254,254)" stroke="rgb(254,254,254)" stroke-width="1" opacity="1" d="M 167.5 159 L 168 189.5 L 167 189.5 L 167.5 159 Z " /><path fill="rgb(254,254,254)" stroke="rgb(254,254,254)" stroke-width="1" opacity="1" d="M 95.5 168 L 96 180.5 L 95 180.5 L 95.5 168 Z " /><path fill="rgb(254,254,254)" stroke="rgb(254,254,254)" stroke-width="1" opacity="1" d="M 142.5 171 L 143 174.5 L 142 174.5 L 142.5 171 Z " /><path fill="rgb(254,254,254)" stroke="rgb(254,254,254)" stroke-width="1" opacity="1" d="M 127.5 196 L 126.5 198 L 127.5 196 Z " /><path fill="rgb(255,255,255)" stroke="rgb(255,255,255)" stroke-width="1" opacity="1" d="M 0 0 L 256 0 L 256 256 L 0 256 L 0 0 Z M 111 33 L 109 35 Q 106 34 107 37 L 100 41 L 99 44 L 96 46 L 88 55 L 88 87 L 87 88 Q 84 87 85 90 L 84 90 L 75 99 Q 72 98 73 101 L 70 103 L 70 143 L 72 145 Q 71 147 74 146 L 74 148 L 84 156 Q 83 158 86 157 L 89 161 L 89 193 L 91 195 Q 90 197 93 196 L 96 201 L 105 207 L 106 210 L 110 212 L 113 210 Q 115 211 114 209 L 121 204 L 123 201 Q 125 202 124 199 L 128 197 L 134 202 Q 136 201 135 204 L 143 210 Q 145 209 144 212 L 147 212 L 153 207 L 155 204 L 158 202 L 167 193 L 168 190 L 168 159 L 171 157 L 173 154 Q 175 155 174 152 L 180 148 Q 182 149 181 146 L 183 146 L 186 142 L 186 116 L 187 115 L 186 104 L 179 96 Q 176 97 177 95 L 174 93 L 173 90 L 170 88 L 168 87 L 168 54 L 161 46 L 158 44 L 156 41 L 151 37 Q 148 38 149 35 L 146 33 L 144 33 L 137 38 L 136 41 Q 133 40 134 43 L 129 47 L 122 43 L 121 40 Q 118 41 119 38 L 113 33 L 111 33 Z " /><path fill="rgb(255,255,255)" stroke="rgb(255,255,255)" stroke-width="1" opacity="1" d="M 143.5 45 L 144 46.5 L 143 47.5 L 143 55.5 L 144 56.5 L 144 65 L 142 65 Q 143.1 62.3 140.5 63 L 132 55.5 L 135 54 L 136.5 51 L 139.5 49 L 142 48 L 143.5 45 Z " /><path fill="rgb(255,255,255)" stroke="rgb(255,255,255)" stroke-width="1" opacity="1" d="M 113.5 46 L 118 49 Q 116.9 51.7 119.5 51 L 121 54 L 124 55.5 L 113.5 65 L 113.5 46 Z " /><path fill="rgb(255,255,255)" stroke="rgb(255,255,255)" stroke-width="1" opacity="1" d="M 105.5 49 L 106 77.5 L 107.5 79 L 112 79 Q 110.9 76.3 113.5 77 L 119 73 Q 117.9 70.3 120.5 71 L 125 67.5 L 125 87.5 L 110.5 102 Q 108.3 101.3 109 103.5 L 107 105.5 L 107 137.5 L 103.5 141 Q 101.3 140.3 102 142.5 L 99 144 Q 100.1 146.7 97.5 146 L 96 146.5 L 96 122.5 L 93.5 118 L 88 119 Q 89.1 121.7 86.5 121 L 85 124 L 79 127 L 77.5 130 L 76 129.5 L 77 128.5 L 77 119.5 L 76 118.5 L 76 109.5 L 83 104 L 84.5 101 L 87.5 99 L 95 90.5 L 95 59.5 L 96 57 L 105 51 L 105.5 49 Z " /><path fill="rgb(255,255,255)" stroke="rgb(255,255,255)" stroke-width="1" opacity="1" d="M 150.5 49 L 151 51 L 160 57 Q 159.3 60.1 162 59.5 L 162 92.5 L 167 96 L 168.5 99 Q 170.8 98.3 170 100.5 L 173 102 Q 171.9 104.7 174.5 104 L 176 107 Q 178.7 105.9 178 108.5 L 180 110.5 L 180 125.5 L 179 128.5 L 179.5 130 L 177 129 Q 178.1 126.3 175.5 127 L 174 124 L 166.5 118 L 162.5 118 L 161 119.5 L 160.5 148 L 154 143 Q 155.1 140.3 152.5 141 L 151 138 L 149 137.5 L 149 104.5 L 144 100.5 Q 144.8 98.3 142.5 99 L 131 87.5 L 131 67.5 L 135.5 71 L 138.5 73 L 141 74 Q 139.9 76.7 142.5 76 Q 143.9 80 149 79 L 150 76.5 L 150.5 49 Z " /><path fill="rgb(255,255,255)" stroke="rgb(255,255,255)" stroke-width="1" opacity="1" d="M 127.5 98 L 131 99 Q 129.9 101.7 132.5 101 L 134 104 L 139 107.5 L 132 113 L 130.5 116 Q 127.9 115.3 129 118 L 127 118 Q 128.1 115.3 125.5 116 L 118 110 L 117 107.5 L 119 107 L 120.5 104 Q 122.8 104.8 122 102.5 L 125 101 Q 123.9 98.3 126.5 99 L 127.5 98 Z " /><path fill="rgb(255,255,255)" stroke="rgb(255,255,255)" stroke-width="1" opacity="1" d="M 142.5 117 L 143 138 Q 140.3 136.9 141 139.5 L 134 144 L 132.5 147 L 131 146.5 L 131 127.5 L 137 123 L 137 121 Q 139.7 122.1 139 119.5 L 142.5 117 Z " /><path fill="rgb(255,255,255)" stroke="rgb(255,255,255)" stroke-width="1" opacity="1" d="M 114 118 L 117 119.5 L 117 121 L 119 121 Q 117.9 123.7 120.5 123 L 125 127.5 L 125 147 L 118 143 Q 119.1 140.3 116.5 141 Q 112 140 113 133.5 L 114 132.5 L 114 118 Z " /><path fill="rgb(255,255,255)" stroke="rgb(255,255,255)" stroke-width="1" opacity="1" d="M 87 132 L 89 132.5 L 89 147.5 L 86.5 146 Q 84.3 146.8 85 144.5 L 82 143 L 82 141 Q 79.3 142.1 80 139.5 L 84 137 Q 82.9 134.3 85.5 135 L 87 132 Z " /><path fill="rgb(255,255,255)" stroke="rgb(255,255,255)" stroke-width="1" opacity="1" d="M 168.5 132 L 176 138 L 174.5 141 L 171.5 143 L 170 146 L 167.5 147 L 168 145.5 L 168.5 132 Z " /><path fill="rgb(255,255,255)" stroke="rgb(255,255,255)" stroke-width="1" opacity="1" d="M 145.5 147 L 153 152 Q 151.9 154.7 154.5 154 L 157 156.5 L 150.5 163 Q 148.3 162.3 149 164.5 L 146 166 Q 147.1 168.7 144.5 168 Q 141.4 169.4 142 174.5 L 144 179 L 147 180.5 Q 146.3 182.8 148.5 182 L 156 188 L 157 190.5 L 155 191 Q 156.1 193.7 153.5 193 L 145 200.5 L 145 199 L 143 199 Q 144.1 196.3 141.5 197 L 136 193 Q 137.1 190.3 134.5 191 L 133 188 L 127.5 185 L 125 186 Q 126.1 188.7 123.5 188 L 116 194 L 114.5 197 L 111.5 199 L 109.5 200 L 107 199 L 105.5 196 L 102.5 194 L 101 191 L 99 190.5 L 100 188 L 109 182 Q 107.9 179.3 110.5 180 Q 114 178 113 171.5 L 110.5 168 L 107.5 166 L 106 163 L 99 157.5 L 100 155 L 107 151 Q 105.9 148.3 108.5 149 L 111.5 148 L 117 152 Q 115.9 154.7 118.5 154 L 123 157 L 124.5 160 Q 127.1 159.3 126 162 L 130 162 Q 128.9 159.3 131.5 160 L 133 157 L 139 154 L 140.5 151 L 143.5 149 L 145.5 147 Z " /><path fill="rgb(255,255,255)" stroke="rgb(255,255,255)" stroke-width="1" opacity="1" d="M 95.5 166 L 96 168 L 103 173.5 L 100.5 177 L 97.5 179 L 96 179.5 Q 96.7 169.9 95.5 166 Z " /><path fill="rgb(255,255,255)" stroke="rgb(255,255,255)" stroke-width="1" opacity="1" d="M 159 166 L 161 166.5 L 161 181.5 L 160 181.5 Q 160.8 179.3 158.5 180 L 157 177 L 152 173.5 L 159 168 L 159 166 Z " /><path fill="rgb(251,251,251)" stroke="rgb(251,251,251)" stroke-width="1" opacity="1" d="M 110.5 33 L 112.5 33 L 119 38 L 118.5 40 L 112.5 34 L 110.5 34 L 109 34.5 L 110.5 33 Z " /><path fill="rgb(251,251,251)" stroke="rgb(251,251,251)" stroke-width="1" opacity="1" d="M 144.5 33 L 147 34.5 L 145.5 34 L 144.5 33 Z " /><path fill="rgb(251,251,251)" stroke="rgb(251,251,251)" stroke-width="1" opacity="1" d="M 142.5 34 L 137.5 40 L 142.5 34 Z " /><path fill="rgb(251,251,251)" stroke="rgb(251,251,251)" stroke-width="1" opacity="1" d="M 102.5 40 L 98.5 45 L 102.5 40 Z " /><path fill="rgb(251,251,251)" stroke="rgb(251,251,251)" stroke-width="1" opacity="1" d="M 153.5 40 L 157.5 45 L 153.5 40 Z " /><path fill="rgb(251,251,251)" stroke="rgb(251,251,251)" stroke-width="1" opacity="1" d="M 123.5 43 L 128.5 47 L 133 43.5 L 127.5 48 L 123.5 43 Z " /><path fill="rgb(251,251,251)" stroke="rgb(251,251,251)" stroke-width="1" opacity="1" d="M 112.5 44 L 116.5 49 L 112.5 44 Z " /><path fill="rgb(251,251,251)" stroke="rgb(251,251,251)" stroke-width="1" opacity="1" d="M 143.5 44 L 139.5 49 L 143.5 44 Z " /><path fill="rgb(251,251,251)" stroke="rgb(251,251,251)" stroke-width="1" opacity="1" d="M 112.5 47 L 113.5 65 L 117 62.5 L 112 66.5 L 112 64.5 L 112.5 47 Z " /><path fill="rgb(251,251,251)" stroke="rgb(251,251,251)" stroke-width="1" opacity="1" d="M 106.5 48 L 107 76.5 L 106 76.5 L 106.5 48 Z " /><path fill="rgb(251,251,251)" stroke="rgb(251,251,251)" stroke-width="1" opacity="1" d="M 92.5 49 L 89.5 53 L 92.5 49 Z " /><path fill="rgb(251,251,251)" stroke="rgb(251,251,251)" stroke-width="1" opacity="1" d="M 104.5 49 L 99.5 55 L 104.5 49 Z " /><path fill="rgb(251,251,251)" stroke="rgb(251,251,251)" stroke-width="1" opacity="1" d="M 151.5 49 L 156.5 55 L 151.5 49 Z " /><path fill="rgb(251,251,251)" stroke="rgb(251,251,251)" stroke-width="1" opacity="1" d="M 163.5 49 L 166.5 53 L 163.5 49 Z " /><path fill="rgb(251,251,251)" stroke="rgb(251,251,251)" stroke-width="1" opacity="1" d="M 121.5 52 L 125 55.5 L 120.5 60 L 124 55.5 L 121.5 52 Z " /><path fill="rgb(251,251,251)" stroke="rgb(251,251,251)" stroke-width="1" opacity="1" d="M 134.5 52 L 131.5 56 L 134.5 52 Z " /><path fill="rgb(251,251,251)" stroke="rgb(251,251,251)" stroke-width="1" opacity="1" d="M 88.5 54 L 89 56.5 L 88 56.5 L 88.5 54 Z " /><path fill="rgb(251,251,251)" stroke="rgb(251,251,251)" stroke-width="1" opacity="1" d="M 133.5 57 L 134.5 59 L 133.5 57 Z " /><path fill="rgb(251,251,251)" stroke="rgb(251,251,251)" stroke-width="1" opacity="1" d="M 137.5 60 L 141.5 65 L 137.5 60 Z " /><path fill="rgb(251,251,251)" stroke="rgb(251,251,251)" stroke-width="1" opacity="1" d="M 124.5 66 L 122.5 69 L 124.5 66 Z " /><path fill="rgb(251,251,251)" stroke="rgb(251,251,251)" stroke-width="1" opacity="1" d="M 131.5 66 L 132.5 68 L 131.5 66 Z " /><path fill="rgb(251,251,251)" stroke="rgb(251,251,251)" stroke-width="1" opacity="1" d="M 88.5 68 L 89 85.5 L 88 85.5 L 88.5 68 Z " /><path fill="rgb(251,251,251)" stroke="rgb(251,251,251)" stroke-width="1" opacity="1" d="M 135.5 69 L 139.5 74 L 135.5 69 Z " /><path fill="rgb(251,251,251)" stroke="rgb(251,251,251)" stroke-width="1" opacity="1" d="M 118.5 71 L 113.5 77 L 118.5 71 Z " /><path fill="rgb(251,251,251)" stroke="rgb(251,251,251)" stroke-width="1" opacity="1" d="M 141.5 75 L 147.5 78 L 149.5 75 L 150 76.5 Q 149.5 79.5 145.5 79 L 141.5 75 Z " /><path fill="rgb(251,251,251)" stroke="rgb(251,251,251)" stroke-width="1" opacity="1" d="M 94.5 81 L 95 88.5 L 94 88.5 L 94.5 81 Z " /><path fill="rgb(251,251,251)" stroke="rgb(251,251,251)" stroke-width="1" opacity="1" d="M 122.5 90 L 121.5 92 L 122.5 90 Z " /><path fill="rgb(251,251,251)" stroke="rgb(251,251,251)" stroke-width="1" opacity="1" d="M 133.5 90 L 143.5 101 L 133.5 90 Z " /><path fill="rgb(251,251,251)" stroke="rgb(251,251,251)" stroke-width="1" opacity="1" d="M 93.5 92 L 87.5 99 L 93.5 92 Z " /><path fill="rgb(251,251,251)" stroke="rgb(251,251,251)" stroke-width="1" opacity="1" d="M 80.5 93 L 75.5 99 L 80.5 93 Z " /><path fill="rgb(251,251,251)" stroke="rgb(251,251,251)" stroke-width="1" opacity="1" d="M 119.5 93 L 108.5 105 L 119.5 93 Z " /><path fill="rgb(251,251,251)" stroke="rgb(251,251,251)" stroke-width="1" opacity="1" d="M 163.5 93 L 165.5 96 L 163.5 93 Z " /><path fill="rgb(251,251,251)" stroke="rgb(251,251,251)" stroke-width="1" opacity="1" d="M 175.5 93 L 176.5 95 L 175.5 93 Z " /><path fill="rgb(251,251,251)" stroke="rgb(251,251,251)" stroke-width="1" opacity="1" d="M 178.5 96 L 184.5 103 L 178.5 96 Z " /><path fill="rgb(251,251,251)" stroke="rgb(251,251,251)" stroke-width="1" opacity="1" d="M 167.5 97 L 168.5 99 L 167.5 97 Z " /><path fill="rgb(251,251,251)" stroke="rgb(251,251,251)" stroke-width="1" opacity="1" d="M 71.5 102 L 71 103.5 L 70.5 105 L 70 103.5 L 71.5 102 Z " /><path fill="rgb(251,251,251)" stroke="rgb(251,251,251)" stroke-width="1" opacity="1" d="M 82.5 102 L 76.5 109 L 82.5 102 Z " /><path fill="rgb(251,251,251)" stroke="rgb(251,251,251)" stroke-width="1" opacity="1" d="M 121.5 102 L 116.5 108 L 121.5 102 Z " /><path fill="rgb(251,251,251)" stroke="rgb(251,251,251)" stroke-width="1" opacity="1" d="M 134.5 102 L 140 107.5 L 138.5 109 L 139 107.5 L 134.5 102 Z " /><path fill="rgb(251,251,251)" stroke="rgb(251,251,251)" stroke-width="1" opacity="1" d="M 107.5 106 L 108 117.5 L 107 117.5 L 107.5 106 Z " /><path fill="rgb(251,251,251)" stroke="rgb(251,251,251)" stroke-width="1" opacity="1" d="M 119.5 110 L 127 116.5 L 125.5 117 L 119.5 110 Z " /><path fill="rgb(251,251,251)" stroke="rgb(251,251,251)" stroke-width="1" opacity="1" d="M 136.5 110 L 130.5 117 L 129 116.5 L 136.5 110 Z " /><path fill="rgb(251,251,251)" stroke="rgb(251,251,251)" stroke-width="1" opacity="1" d="M 113.5 116 L 114.5 118 L 113.5 116 Z " /><path fill="rgb(251,251,251)" stroke="rgb(251,251,251)" stroke-width="1" opacity="1" d="M 90.5 118 L 88.5 121 L 90.5 118 Z " /><path fill="rgb(251,251,251)" stroke="rgb(251,251,251)" stroke-width="1" opacity="1" d="M 93.5 118 L 95 120.5 L 94 120.5 L 93.5 118 Z " /><path fill="rgb(251,251,251)" stroke="rgb(251,251,251)" stroke-width="1" opacity="1" d="M 166.5 118 L 167.5 120 L 166.5 118 Z " /><path fill="rgb(251,251,251)" stroke="rgb(251,251,251)" stroke-width="1" opacity="1" d="M 117.5 119 L 124.5 127 L 117.5 119 Z " /><path fill="rgb(251,251,251)" stroke="rgb(251,251,251)" stroke-width="1" opacity="1" d="M 138.5 119 L 131.5 127 L 138.5 119 Z " /><path fill="rgb(251,251,251)" stroke="rgb(251,251,251)" stroke-width="1" opacity="1" d="M 169.5 121 L 173.5 126 L 169.5 121 Z " /><path fill="rgb(251,251,251)" stroke="rgb(251,251,251)" stroke-width="1" opacity="1" d="M 161.5 123 L 162 149 L 155 143.5 L 161 147.5 L 161.5 123 Z " /><path fill="rgb(251,251,251)" stroke="rgb(251,251,251)" stroke-width="1" opacity="1" d="M 83.5 124 L 79.5 129 L 83.5 124 Z " /><path fill="rgb(251,251,251)" stroke="rgb(251,251,251)" stroke-width="1" opacity="1" d="M 178.5 129 L 179.5 131 L 178.5 129 Z " /><path fill="rgb(251,251,251)" stroke="rgb(251,251,251)" stroke-width="1" opacity="1" d="M 167.5 130 L 171.5 135 L 168 132.5 L 168 145.5 L 169 146.5 L 167 147.5 L 167 145.5 L 167.5 130 Z " /><path fill="rgb(251,251,251)" stroke="rgb(251,251,251)" stroke-width="1" opacity="1" d="M 83.5 135 L 81.5 138 L 83.5 135 Z " /><path fill="rgb(251,251,251)" stroke="rgb(251,251,251)" stroke-width="1" opacity="1" d="M 173.5 136 L 174.5 138 L 173.5 136 Z " /><path fill="rgb(251,251,251)" stroke="rgb(251,251,251)" stroke-width="1" opacity="1" d="M 185.5 137 L 186 140.5 L 185 140.5 L 185.5 137 Z " /><path fill="rgb(251,251,251)" stroke="rgb(251,251,251)" stroke-width="1" opacity="1" d="M 113.5 138 L 118 141.5 L 116.5 142 L 113.5 138 Z " /><path fill="rgb(251,251,251)" stroke="rgb(251,251,251)" stroke-width="1" opacity="1" d="M 142.5 138 L 141.5 140 L 142.5 138 Z " /><path fill="rgb(251,251,251)" stroke="rgb(251,251,251)" stroke-width="1" opacity="1" d="M 149.5 138 L 150.5 140 L 149.5 138 Z " /><path fill="rgb(251,251,251)" stroke="rgb(251,251,251)" stroke-width="1" opacity="1" d="M 176.5 138 L 177 139.5 L 173 142.5 L 176.5 138 Z " /><path fill="rgb(251,251,251)" stroke="rgb(251,251,251)" stroke-width="1" opacity="1" d="M 70.5 139 L 71 141.5 L 70 141.5 L 70.5 139 Z " /><path fill="rgb(251,251,251)" stroke="rgb(251,251,251)" stroke-width="1" opacity="1" d="M 79.5 139 L 82 142.5 L 79 140.5 L 79.5 139 Z " /><path fill="rgb(251,251,251)" stroke="rgb(251,251,251)" stroke-width="1" opacity="1" d="M 104.5 140 L 100.5 145 L 104.5 140 Z " /><path fill="rgb(251,251,251)" stroke="rgb(251,251,251)" stroke-width="1" opacity="1" d="M 71.5 143 L 72.5 145 L 71.5 143 Z " /><path fill="rgb(251,251,251)" stroke="rgb(251,251,251)" stroke-width="1" opacity="1" d="M 119.5 143 L 123.5 148 L 119.5 143 Z " /><path fill="rgb(251,251,251)" stroke="rgb(251,251,251)" stroke-width="1" opacity="1" d="M 136.5 143 L 132.5 148 L 136.5 143 Z " /><path fill="rgb(251,251,251)" stroke="rgb(251,251,251)" stroke-width="1" opacity="1" d="M 74.5 146 L 79.5 152 L 74.5 146 Z " /><path fill="rgb(251,251,251)" stroke="rgb(251,251,251)" stroke-width="1" opacity="1" d="M 86.5 146 L 88.5 149 L 86.5 146 Z " /><path fill="rgb(251,251,251)" stroke="rgb(251,251,251)" stroke-width="1" opacity="1" d="M 97.5 146 L 95.5 149 L 97.5 146 Z " /><path fill="rgb(251,251,251)" stroke="rgb(251,251,251)" stroke-width="1" opacity="1" d="M 145.5 146 L 149 148.5 L 146.5 147 L 143.5 149 L 145.5 146 Z " /><path fill="rgb(251,251,251)" stroke="rgb(251,251,251)" stroke-width="1" opacity="1" d="M 180.5 146 L 175.5 152 L 180.5 146 Z " /><path fill="rgb(251,251,251)" stroke="rgb(251,251,251)" stroke-width="1" opacity="1" d="M 111.5 147 L 115.5 152 L 111.5 147 Z " /><path fill="rgb(251,251,251)" stroke="rgb(251,251,251)" stroke-width="1" opacity="1" d="M 106.5 149 L 101.5 155 L 106.5 149 Z " /><path fill="rgb(251,251,251)" stroke="rgb(251,251,251)" stroke-width="1" opacity="1" d="M 150.5 150 L 151.5 152 L 150.5 150 Z " /><path fill="rgb(251,251,251)" stroke="rgb(251,251,251)" stroke-width="1" opacity="1" d="M 117.5 152 L 121.5 157 L 117.5 152 Z " /><path fill="rgb(251,251,251)" stroke="rgb(251,251,251)" stroke-width="1" opacity="1" d="M 138.5 152 L 134.5 157 L 138.5 152 Z " /><path fill="rgb(251,251,251)" stroke="rgb(251,251,251)" stroke-width="1" opacity="1" d="M 153.5 153 L 158 156.5 L 149 164.5 L 157 156.5 L 154.5 154 L 153.5 153 Z " /><path fill="rgb(251,251,251)" stroke="rgb(251,251,251)" stroke-width="1" opacity="1" d="M 86.5 157 L 88.5 160 L 86.5 157 Z " /><path fill="rgb(251,251,251)" stroke="rgb(251,251,251)" stroke-width="1" opacity="1" d="M 168.5 157 L 167.5 159 L 168.5 157 Z " /><path fill="rgb(251,251,251)" stroke="rgb(251,251,251)" stroke-width="1" opacity="1" d="M 99.5 158 L 105.5 165 L 99.5 158 Z " /><path fill="rgb(251,251,251)" stroke="rgb(251,251,251)" stroke-width="1" opacity="1" d="M 131.5 158 L 128.5 162 L 126 160.5 L 127.5 161 L 131.5 158 Z " /><path fill="rgb(251,251,251)" stroke="rgb(251,251,251)" stroke-width="1" opacity="1" d="M 161.5 165 L 162 181.5 L 161 181.5 L 161.5 165 Z " /><path fill="rgb(251,251,251)" stroke="rgb(251,251,251)" stroke-width="1" opacity="1" d="M 158.5 166 L 159 168 L 152 173.5 L 156.5 179 L 151 173.5 L 158.5 166 Z " /><path fill="rgb(251,251,251)" stroke="rgb(251,251,251)" stroke-width="1" opacity="1" d="M 110.5 168 L 111.5 170 L 110.5 168 Z " /><path fill="rgb(251,251,251)" stroke="rgb(251,251,251)" stroke-width="1" opacity="1" d="M 144.5 168 L 144 169.5 L 143.5 171 L 143 169.5 L 144.5 168 Z " /><path fill="rgb(251,251,251)" stroke="rgb(251,251,251)" stroke-width="1" opacity="1" d="M 99.5 169 L 104 174.5 L 101 176.5 L 103 173.5 L 99.5 169 Z " /><path fill="rgb(251,251,251)" stroke="rgb(251,251,251)" stroke-width="1" opacity="1" d="M 97.5 179 L 95.5 182 L 97.5 179 Z " /><path fill="rgb(251,251,251)" stroke="rgb(251,251,251)" stroke-width="1" opacity="1" d="M 108.5 180 L 109 182 L 101.5 188 L 108.5 180 Z " /><path fill="rgb(251,251,251)" stroke="rgb(251,251,251)" stroke-width="1" opacity="1" d="M 147.5 180 L 154.5 188 L 147.5 180 Z " /><path fill="rgb(251,251,251)" stroke="rgb(251,251,251)" stroke-width="1" opacity="1" d="M 127.5 185 L 126.5 187 L 127.5 185 Z " /><path fill="rgb(251,251,251)" stroke="rgb(251,251,251)" stroke-width="1" opacity="1" d="M 129.5 186 L 132.5 190 L 129.5 186 Z " /><path fill="rgb(251,251,251)" stroke="rgb(251,251,251)" stroke-width="1" opacity="1" d="M 98 189 L 100 189.5 L 99 190.5 L 100.5 193 L 98 189 Z " /><path fill="rgb(251,251,251)" stroke="rgb(251,251,251)" stroke-width="1" opacity="1" d="M 89.5 190 L 92 194.5 L 89 192.5 L 89.5 190 Z " /><path fill="rgb(251,251,251)" stroke="rgb(251,251,251)" stroke-width="1" opacity="1" d="M 121.5 190 L 116.5 196 L 121.5 190 Z " /><path fill="rgb(251,251,251)" stroke="rgb(251,251,251)" stroke-width="1" opacity="1" d="M 166.5 191 L 167 192.5 L 160 198.5 L 166.5 191 Z " /><path fill="rgb(251,251,251)" stroke="rgb(251,251,251)" stroke-width="1" opacity="1" d="M 137.5 193 L 142.5 199 L 137.5 193 Z " /><path fill="rgb(251,251,251)" stroke="rgb(251,251,251)" stroke-width="1" opacity="1" d="M 153.5 193 L 152.5 195 L 153.5 193 Z " /><path fill="rgb(251,251,251)" stroke="rgb(251,251,251)" stroke-width="1" opacity="1" d="M 93.5 196 L 101.5 205 L 93.5 196 Z " /><path fill="rgb(251,251,251)" stroke="rgb(251,251,251)" stroke-width="1" opacity="1" d="M 128.5 196 L 130.5 199 L 128.5 196 Z " /><path fill="rgb(251,251,251)" stroke="rgb(251,251,251)" stroke-width="1" opacity="1" d="M 150.5 196 L 146.5 201 L 150.5 196 Z " /><path fill="rgb(251,251,251)" stroke="rgb(251,251,251)" stroke-width="1" opacity="1" d="M 108.5 199 L 110.5 200 L 112 199.5 L 109.5 201 L 108.5 199 Z " /><path fill="rgb(251,251,251)" stroke="rgb(251,251,251)" stroke-width="1" opacity="1" d="M 122.5 200 L 118.5 205 L 122.5 200 Z " /><path fill="rgb(251,251,251)" stroke="rgb(251,251,251)" stroke-width="1" opacity="1" d="M 158.5 200 L 157.5 202 L 158.5 200 Z " /><path fill="rgb(251,251,251)" stroke="rgb(251,251,251)" stroke-width="1" opacity="1" d="M 135.5 202 L 142.5 210 L 135 204 L 135.5 202 Z " /><path fill="rgb(251,251,251)" stroke="rgb(251,251,251)" stroke-width="1" opacity="1" d="M 152.5 205 L 147.5 211 L 152.5 205 Z " /></svg>